<?xml version="1.0" encoding="UTF-8" standalone="no"?>
<svg class="facebook" width="16px" height="16px" viewBox="0 0 16 16" version="1.1" xmlns="http://www.w3.org/2000/svg" xmlns:xlink="http://www.w3.org/1999/xlink">
<defs>
<rect id="path-1-fb" x="0" y="0" width="196" height="46" rx="4"></rect>
<rect id="path-3-fb" x="0" y="0" width="196" height="46" rx="4"></rect>
<path d="M14.8333333,1.5 L3.16666667,1.5 C2.25,1.5 1.5,2.25 1.5,3.16666667 L1.5,14.8333333 C1.5,15.7508333 2.25,16.5 3.16666667,16.5 L9,16.5 L9,10.6666667 L7.33333333,10.6666667 L7.33333333,8.60416667 L9,8.60416667 L9,6.89583333 C9,5.0925 10.01,3.82583333 12.1383333,3.82583333 L13.6408333,3.8275 L13.6408333,5.99833333 L12.6433333,5.99833333 C11.815,5.99833333 11.5,6.62 11.5,7.19666667 L11.5,8.605 L13.64,8.605 L13.1666667,10.6666667 L11.5,10.6666667 L11.5,16.5 L14.8333333,16.5 C15.75,16.5 16.5,15.7508333 16.5,14.8333333 L16.5,3.16666667 C16.5,2.25 15.75,1.5 14.8333333,1.5 Z" id="path-5-fb"></path>
</defs>
<g stroke="none" stroke-width="1" fill="none" fill-rule="evenodd">
<g transform="translate(-17.000000, -15.000000)">
<g>
<mask id="mask-2-fb" fill="white">
<use xlink:href="#path-1-fb"></use>
</mask>
<mask id="mask-4-fb" fill="white">
<use xlink:href="#path-3-fb"></use>
</mask>
<rect stroke="#FFFFFF" stroke-width="1" x="0.5" y="0.5" width="195" height="45" rx="4"></rect>
</g>
<g transform="translate(16.000000, 14.403509)">
<mask id="mask-6-fb" fill="white">
<use xlink:href="#path-5-fb"></use>
</mask>
<use fill="#000000" fill-rule="nonzero" xlink:href="#path-5-fb"></use>
<g id="color/white" mask="url(#mask-6-fb)" fill="#FFFFFF" fill-rule="evenodd">
<rect id="FFFFFF" x="0" y="0" width="18" height="18"></rect>
</g>
</g>
</g>
</g>
</svg>