<?xml version="1.0" encoding="UTF-8" standalone="no"?>
<svg id="logo" width="128px" height="21px" viewBox="0 0 128 21" version="1.1" xmlns="http://www.w3.org/2000/svg" xmlns:xlink="http://www.w3.org/1999/xlink">
  <g stroke="none" stroke-width="1" fill="#FFFFFF" fill-rule="evenodd">
    <path d="M19.0582412,20.412048 L12.0278678,20.412048 L12.0278678,17.729777 L13.8913402,17.729777 L12.959604,15.2169126 L6.09863718,15.2169126 L5.11043208,17.729777 L7.17154557,17.729777 L7.17154557,20.412048 L0.225875451,20.412048 L0.225875451,17.729777 L1.91994133,17.729777 L7.45388988,4.74193859 L4.7716189,4.74193859 L4.7716189,2.05966761 L10.6726151,2.05966761 L17.279472,17.729777 L19.0582412,17.729777 L19.0582412,20.412048 Z M12.1125711,12.9299237 L9.71264439,6.5489422 L9.5432378,6.5489422 L7.00213898,12.9299237 L12.1125711,12.9299237 Z M21.6275744,5.1089862 L21.6275744,1.7773233 L24.7051274,1.7773233 L24.7051274,5.1089862 L21.6275744,5.1089862 Z M26.6815376,20.412048 L19.9052741,20.412048 L19.9052741,18.0968246 L21.796981,18.0968246 L21.796981,10.0782461 L19.7923364,10.0782461 L19.7923364,7.73478832 L24.7898307,7.73478832 L24.7898307,18.0968246 L26.6815376,18.0968246 L26.6815376,20.412048 Z M35.7730245,7.5371473 C36.6200617,7.5371473 37.4106179,7.77243187 38.1447168,8.24300808 L38.681171,12.1958285 L36.3377132,12.4781728 L35.8577278,10.3041216 C35.4812669,10.1158911 35.1612798,10.0217773 34.8977572,10.0217773 C34.3707118,10.0217773 33.9142597,10.2382391 33.5283873,10.6711692 C33.1425148,11.1040993 32.9495814,11.7064278 32.9495814,12.4781728 L32.9495814,18.0968246 L35.4624458,18.0968246 L35.4624458,20.412048 L28.0367903,20.412048 L28.0367903,18.0968246 L29.9284973,18.0968246 L29.9284973,10.0782461 L27.9520871,10.0782461 L27.9520871,7.73478832 L32.723706,7.73478832 L32.723706,10.1064806 C32.9495825,9.39120471 33.3119208,8.78417051 33.8107316,8.28535973 C34.3095423,7.78654895 34.9636335,7.5371473 35.7730245,7.5371473 Z M61.8334047,4.74193859 L59.5181814,4.74193859 L59.5181814,17.729777 L61.6075293,17.729777 L61.6075293,20.412048 L54.5771559,20.412048 L54.5771559,17.729777 L56.3841595,17.729777 L56.3841595,8.94886887 L56.2712218,8.94886887 L50.9349142,19.1132642 L49.5231927,19.1132642 L43.9045408,8.69475898 L43.7916031,8.69475898 L43.7916031,17.729777 L45.7115444,17.729777 L45.7115444,20.412048 L38.7658743,20.412048 L38.7658743,17.729777 L40.8552222,17.729777 L40.8552222,4.74193859 L38.5399989,4.74193859 L38.5399989,2.05966761 L43.5092588,2.05966761 L50.2855223,14.5675207 L50.39846,14.5675207 L56.8359104,2.05966761 L61.8334047,2.05966761 L61.8334047,4.74193859 Z M75.5835728,14.0875354 C75.5835728,16.0639555 74.9577158,17.6591849 73.7059831,18.8732715 C72.4542504,20.0873581 70.8307868,20.6943923 68.8355437,20.6943923 C66.8967697,20.6943923 65.3391858,20.1108866 64.1627453,18.9438576 C62.9863048,17.7768286 62.3980934,16.1957162 62.3980934,14.2004731 C62.3980934,12.3558144 62.953365,10.7699963 64.0639248,9.44297141 C65.1744847,8.11594651 66.8214767,7.452444 69.0049503,7.452444 C71.207247,7.452444 72.854239,8.11124081 73.9459758,9.4288542 C75.0377126,10.7464676 75.5835728,12.2993458 75.5835728,14.0875354 Z M72.4495509,14.0028321 C72.4495509,12.6475726 72.1248582,11.6123205 71.475463,10.8970446 C70.8260679,10.1817688 69.9837491,9.82413624 68.9484814,9.82413624 C67.8755677,9.82413624 67.0379546,10.2052972 66.435617,10.9676307 C65.8332795,11.7299642 65.5321152,12.7510992 65.5321152,14.0310665 C65.5321152,15.2357416 65.8191624,16.252171 66.3932654,17.0803851 C66.9673684,17.9085992 67.8190985,18.3227001 68.9484814,18.3227001 C70.0402182,18.3227001 70.8966541,17.9227163 71.5178147,17.1227367 C72.1389753,16.3227572 72.4495509,15.2827994 72.4495509,14.0028321 Z M88.2890669,20.412048 L77.362342,20.412048 L77.1082321,18.774451 L84.3362465,10.0500117 L79.7340342,10.0500117 L79.2258145,12.2240629 L76.9952944,11.9981875 L77.4188108,7.73478832 L88.2043636,7.73478832 L88.4020046,9.40061977 L81.0328181,18.0968246 L86.002078,18.0968246 L86.6232355,15.894539 L89.0231621,16.1768833 L88.2890669,20.412048 Z M92.2983562,5.1089862 L92.2983562,1.7773233 L95.3759092,1.7773233 L95.3759092,5.1089862 L92.2983562,5.1089862 Z M97.3523194,20.412048 L90.5760559,20.412048 L90.5760559,18.0968246 L92.4677628,18.0968246 L92.4677628,10.0782461 L90.4631181,10.0782461 L90.4631181,7.73478832 L95.4606125,7.73478832 L95.4606125,18.0968246 L97.3523194,18.0968246 L97.3523194,20.412048 Z M105.201491,20.412048 L98.4252278,20.412048 L98.4252278,18.0968246 L100.316935,18.0968246 L100.316935,3.30198259 L98.3122901,3.30198259 L98.3122901,0.986759219 L103.309784,0.986759219 L103.309784,18.0968246 L105.201491,18.0968246 L105.201491,20.412048 Z M113.050663,20.412048 L106.2744,20.412048 L106.2744,18.0968246 L108.166107,18.0968246 L108.166107,3.30198259 L106.161462,3.30198259 L106.161462,0.986759219 L111.158956,0.986759219 L111.158956,18.0968246 L113.050663,18.0968246 L113.050663,20.412048 Z M115.648231,8.66652455 C116.589383,8.21477139 117.426996,7.90419575 118.161095,7.73478832 C118.895194,7.56538088 119.742219,7.48067843 120.702194,7.48067843 C122.113923,7.48067843 123.276229,7.83831099 124.189146,8.55358683 C125.102064,9.26886266 125.558516,10.3417603 125.558516,11.772312 L125.558516,17.4756671 C125.558516,18.2285891 125.869092,18.6050444 126.490253,18.6050444 C126.65966,18.6050444 126.876122,18.5673989 127.139644,18.4921067 L127.167879,20.1579381 C126.546718,20.515576 125.869099,20.6943923 125.135,20.6943923 C123.535041,20.6943923 122.669194,19.8567792 122.537432,18.1815279 L122.537432,18.1250591 C122.160971,18.7838658 121.629228,19.3767829 120.942187,19.9038282 C120.255146,20.4308736 119.403415,20.6943923 118.386971,20.6943923 C117.502287,20.6943923 116.631735,20.4261679 115.775286,19.889711 C114.918837,19.3532541 114.490619,18.4168215 114.490619,17.0803851 C114.490619,15.5180721 115.111771,14.4875256 116.354092,13.9887149 C117.596413,13.4899041 118.942241,13.2405024 120.391615,13.2405024 C120.749253,13.2405024 121.116297,13.2499138 121.492758,13.2687369 C121.869219,13.2875599 122.21744,13.3157941 122.537432,13.3534402 L122.537432,12.6475794 C122.537432,11.8946574 122.405673,11.2170379 122.14215,10.6147003 C121.878627,10.0123628 121.219831,9.71119851 120.16574,9.71119851 C119.770456,9.71119851 119.398706,9.73943266 119.05048,9.79590181 C118.702254,9.85237095 118.368149,9.96530755 118.048158,10.134715 L117.539938,12.0828907 L115.111777,11.8287809 L115.648231,8.66652455 Z M122.537432,15.3863192 L122.537432,14.9345683 C122.21744,14.8969222 121.888042,14.8592767 121.549227,14.8216306 C121.210412,14.7839845 120.862191,14.7651617 120.504553,14.7651617 C119.751631,14.7651617 119.078717,14.8969211 118.485791,15.1604438 C117.892865,15.4239664 117.596407,15.9510039 117.596407,16.7415719 C117.596407,17.8897779 118.208147,18.4638722 119.431645,18.4638722 C120.146921,18.4638722 120.82454,18.2050592 121.464524,17.6874254 C122.104507,17.1697915 122.46214,16.4027638 122.537432,15.3863192 Z"></path>
  </g>
</svg>
