<?xml version="1.0" encoding="UTF-8" standalone="no"?>
<svg width="16px" height="14px" viewBox="0 0 16 14" version="1.1" xmlns="http://www.w3.org/2000/svg" xmlns:xlink="http://www.w3.org/1999/xlink">
<defs><path d="M12.0478338,12.6666667 L12.0478338,14 C12.0478338,14.4 11.7801042,14.6666667 11.3785097,14.6666667 C10.9769153,14.6666667 10.7091856,14.4 10.7091856,14 L10.7091856,12.6666667 C10.7091856,11.5333333 9.83906428,10.6666667 8.70121331,10.6666667 L3.3466205,10.6666667 C2.20876953,10.6666667 1.3386482,11.5333333 1.3386482,12.6666667 L1.3386482,14 C1.3386482,14.4 1.07091856,14.6666667 0.669324101,14.6666667 C0.26772964,14.6666667 0,14.4 0,14 L0,12.6666667 C0,10.8 1.47251302,9.33333333 3.3466205,9.33333333 L8.70121331,9.33333333 C10.5753208,9.33333333 12.0478338,10.8 12.0478338,12.6666667 Z M2.6772964,4.66666667 C2.6772964,2.8 4.14980942,1.33333333 6.02391691,1.33333333 C7.89802439,1.33333333 9.37053741,2.8 9.37053741,4.66666667 C9.37053741,6.53333333 7.89802439,8 6.02391691,8 C4.14980942,8 2.6772964,6.53333333 2.6772964,4.66666667 Z M4.0159446,4.66666667 C4.0159446,5.8 4.88606594,6.66666667 6.02391691,6.66666667 C7.16176788,6.66666667 8.03188921,5.8 8.03188921,4.66666667 C8.03188921,3.53333333 7.16176788,2.66666667 6.02391691,2.66666667 C4.88606594,2.66666667 4.0159446,3.53333333 4.0159446,4.66666667 Z M13.5203468,9.46666667 C13.1856848,9.4 12.7840903,9.6 12.7171579,9.93333333 C12.6502255,10.2666667 12.8510227,10.6666667 13.1856848,10.7333333 C14.0558061,10.9333333 14.6581978,11.7333333 14.6581978,12.6666667 L14.6581978,14 C14.6581978,14.4 14.9259274,14.6666667 15.3275219,14.6666667 C15.7291164,14.6666667 15.996846,14.4 15.996846,14 L15.996846,12.6666667 C16.0637784,11.1333333 15.0597923,9.8 13.5203468,9.46666667 Z M10.8430504,1.46666667 C10.5083884,1.33333333 10.1737263,1.53333333 10.0398615,1.93333333 C9.9729291,2.26666667 10.1737263,2.66666667 10.5083884,2.73333333 C11.5793069,3 12.248631,4.06666667 11.9809014,5.2 C11.7801042,5.93333333 11.2446449,6.46666667 10.5083884,6.66666667 C10.1737263,6.73333333 9.90599669,7.13333333 10.0398615,7.46666667 C10.1067939,7.8 10.3745236,8 10.7091856,8 C10.776118,8 10.8430504,8 10.8430504,8 C12.0478338,7.66666667 12.9848876,6.8 13.2526172,5.6 C13.7211441,3.73333333 12.6502255,1.86666667 10.8430504,1.46666667 Z" id="path-1-meeting"></path></defs>
<g stroke="none" stroke-width="1" fill="none" fill-rule="evenodd">
<use id="Mask" fill="#FF4F53" fill-rule="nonzero" xlink:href="#path-1-meeting"></use>
</g>
</svg>