<?xml version="1.0" encoding="UTF-8" standalone="no"?>
<svg width="16px" height="16px" viewBox="0 0 16 16" version="1.1" xmlns="http://www.w3.org/2000/svg" xmlns:xlink="http://www.w3.org/1999/xlink">
<defs><path d="M8,0.666666667 C3.93333333,0.666666667 0.666666667,3.93333333 0.666666667,8 C0.666666667,12.0666667 3.93333333,15.3333333 8,15.3333333 C12.0666667,15.3333333 15.3333333,12.0666667 15.3333333,8 C15.3333333,3.93333333 12.0666667,0.666666667 8,0.666666667 Z M8,14 C4.66666667,14 2,11.3333333 2,8 C2,4.66666667 4.66666667,2 8,2 C11.3333333,2 14,4.66666667 14,8 C14,11.3333333 11.3333333,14 8,14 Z M11.0666667,7.46666667 L7.06666667,4.8 C6.86666667,4.66666667 6.6,4.66666667 6.4,4.8 C6.13333333,4.86666667 6,5.06666667 6,5.33333333 L6,10.6666667 C6,10.9333333 6.13333333,11.1333333 6.33333333,11.2666667 C6.46666667,11.3333333 6.53333333,11.3333333 6.66666667,11.3333333 C6.8,11.3333333 6.93333333,11.2666667 7.06666667,11.2 L11.0666667,8.53333333 C11.2666667,8.4 11.3333333,8.2 11.3333333,8 C11.3333333,7.8 11.2,7.6 11.0666667,7.46666667 Z M7.33333333,9.4 L7.33333333,6.6 L9.46666667,8 L7.33333333,9.4 Z" id="path-1-play-circle"></path></defs>
<g stroke="none" stroke-width="1" fill="none" fill-rule="evenodd">
<use fill="#ff4f53" fill-rule="nonzero" xlink:href="#path-1-play-circle"></use>
</g>
</svg>
