<?xml version="1.0" encoding="UTF-8" standalone="no"?>
<svg class="twitter" width="18px" height="14px" viewBox="0 0 18 14" version="1.1" xmlns="http://www.w3.org/2000/svg" xmlns:xlink="http://www.w3.org/1999/xlink">
    <defs>
        <rect id="path-1-tw" x="0" y="0" width="202" height="46" rx="4"></rect>
        <rect id="path-3-tw" x="0" y="0" width="202" height="46" rx="4"></rect>
        <path d="M15.6144,5.59980452 C15.6216,5.74560452 15.6243,5.89320452 15.6243,6.03900452 C15.6243,10.5300045 12.207,15.7068045 5.9583,15.7068045 C4.0386,15.7068045 2.2539,15.1443045 0.75,14.1795045 C2.5465223,14.3967555 4.35572926,13.8910323 5.7792,12.7737045 C4.326035,12.7462355 3.0509137,11.7983929 2.6058,10.4148045 C3.11525547,10.5100744 3.63957668,10.4900857 4.1403,10.3563045 C2.55494431,10.0348352 1.41536765,8.64122473 1.4151,7.02360452 L1.4151,6.98130452 C1.88687678,7.24374452 2.41451827,7.38969448 2.9541,7.40700452 C1.45930955,6.41047857 0.99868994,4.42247902 1.9029,2.87010452 C3.6280087,4.99322596 6.17359528,6.28384915 8.9058,6.42060452 C8.84735181,6.16646055 8.81806276,5.90648251 8.8185,5.64570452 C8.81849997,4.74495293 9.17638373,3.88110693 9.81339568,3.24426377 C10.4504076,2.60742061 11.3143484,2.24976578 12.2151,2.25000452 C13.1546478,2.24847228 14.0527699,2.63659399 14.6955,3.32190452 C15.4561194,3.17133299 16.1856097,2.89256238 16.8528,2.49750452 C16.5990451,3.28428823 16.0681193,3.95210324 15.3588,4.37670452 C16.0322329,4.29686889 16.6899208,4.1166721 17.31,3.84210452 C16.8544712,4.52469775 16.2801738,5.12002832 15.6144,5.59980452 Z" id="path-5-tw"></path>
    </defs>
    <g stroke="none" stroke-width="1" fill="none" fill-rule="evenodd">
        <g transform="translate(-16, -16)">
            <g>
                <mask id="mask-2-tw" fill="white">
                    <use xlink:href="#path-1-tw"></use>
                </mask>
                <mask id="mask-4-tw" fill="white">
                    <use xlink:href="#path-3-tw"></use>
                </mask>
                <rect stroke="#FFFFFF" stroke-width="1" x="0.5" y="0.5" width="201" height="45" rx="4"></rect>
            </g>
            <g transform="translate(16.000000, 14.000000)">
                <mask id="mask-6-tw" fill="white">
                    <use xlink:href="#path-5-tw"></use>
                </mask>
                <use fill="#000000" fill-rule="nonzero" xlink:href="#path-5-tw"></use>
                <g id="color/white" mask="url(#mask-6-tw)" fill="#FFFFFF" fill-rule="evenodd">
                    <rect id="FFFFFF" x="0" y="0" width="18" height="18"></rect>
                </g>
            </g>
        </g>
    </g>
</svg>
