<?xml version="1.0" encoding="UTF-8" standalone="no"?>
<svg width="18px" height="20px" viewBox="0 0 18 20" version="1.1" xmlns="http://www.w3.org/2000/svg" xmlns:xlink="http://www.w3.org/1999/xlink">
    <!-- Generator: Sketch 49.2 (51160) - http://www.bohemiancoding.com/sketch -->
    <title>user</title>
    <desc>Created with Sketch.</desc>
    <defs>
        <path d="M21,19 L21,21 C21,21.6 20.6,22 20,22 C19.4,22 19,21.6 19,21 L19,19 C19,17.3 17.7,16 16,16 L8,16 C6.3,16 5,17.3 5,19 L5,21 C5,21.6 4.6,22 4,22 C3.4,22 3,21.6 3,21 L3,19 C3,16.2 5.2,14 8,14 L16,14 C18.8,14 21,16.2 21,19 Z M7,7 C7,4.2 9.2,2 12,2 C14.8,2 17,4.2 17,7 C17,9.8 14.8,12 12,12 C9.2,12 7,9.8 7,7 Z M9,7 C9,8.7 10.3,10 12,10 C13.7,10 15,8.7 15,7 C15,5.3 13.7,4 12,4 C10.3,4 9,5.3 9,7 Z" id="path-1"></path>
    </defs>
    <g id="Desktop" stroke="none" stroke-width="1" fill="none" fill-rule="evenodd">
        <g id="AirMozilla-Landing-Page" transform="translate(-1391.000000, -15.000000)">
            <g id="Group-6" transform="translate(1388.000000, 13.000000)">
                <g id="icon-/-user">
                    <mask id="mask-2" fill="white">
                        <use xlink:href="#path-1"></use>
                    </mask>
                    <use id="Mask" fill="#000000" fill-rule="nonzero" xlink:href="#path-1"></use>
                    <g id="color/grey-grey" mask="url(#mask-2)" fill="#959595" fill-rule="evenodd">
                        <rect id="000000" x="0" y="0" width="24" height="24"></rect>
                    </g>
                </g>
            </g>
        </g>
    </g>
</svg>
