<?xml version="1.0" encoding="UTF-8" standalone="no"?>
<svg class="youtube" width="17px" height="18px" viewBox="0 0 17 18" version="1.1" xmlns="http://www.w3.org/2000/svg" xmlns:xlink="http://www.w3.org/1999/xlink">
    <defs>
        <rect id="path-1-yt" x="0" y="0" width="206" height="46" rx="4"></rect>
        <rect id="path-3-yt" x="0" y="0" width="206" height="46" rx="4"></rect>
        <path d="M7.70454545,0 L6.63068182,0 L5.91477273,2.5875 L5.19886364,0 L4.00568182,0 C4.24431818,0.675 4.48295455,1.2375 4.72159091,1.9125 C5.07954545,2.8125 5.31818182,3.6 5.31818182,4.05 L5.31818182,6.75 L6.39204545,6.75 L6.39204545,4.05 L7.70454545,0 Z M10.5681818,5.0625 L10.5681818,3.375 C10.5681818,2.8125 10.4488636,2.475 10.2102273,2.1375 C9.97159091,1.8 9.61363636,1.6875 9.13636364,1.6875 C8.65909091,1.6875 8.30113636,1.9125 8.0625,2.25 C7.82386364,2.475 7.70454545,2.8125 7.70454545,3.375 L7.70454545,5.175 C7.70454545,5.7375 7.82386364,6.075 8.0625,6.3 C8.30113636,6.6375 8.65909091,6.75 9.13636364,6.75 C9.61363636,6.75 9.97159091,6.525 10.2102273,6.1875 C10.4488636,6.075 10.5681818,5.625 10.5681818,5.0625 Z M9.61363636,5.2875 C9.61363636,5.7375 9.49431818,5.9625 9.13636364,5.9625 C8.77840909,5.9625 8.65909091,5.7375 8.65909091,5.2875 L8.65909091,3.15 C8.65909091,2.7 8.77840909,2.475 9.13636364,2.475 C9.49431818,2.475 9.61363636,2.7 9.61363636,3.15 L9.61363636,5.2875 Z M14.1477273,6.75 L13.1931818,6.75 L13.1931818,6.1875 C12.8352273,6.525 12.4772727,6.75 12.1193182,6.75 C11.7613636,6.75 11.5227273,6.6375 11.5227273,6.4125 C11.4034091,6.1875 11.4034091,5.9625 11.4034091,5.625 L11.4034091,1.6875 L12.3579545,1.6875 L12.3579545,5.7375 C12.3579545,5.85 12.4772727,5.9625 12.5965909,5.9625 C12.8352273,5.9625 12.9545455,5.85 13.1931818,5.5125 L13.1931818,1.6875 L14.1477273,1.6875 L14.1477273,6.75 Z M17.0113636,9.3375 C17.25,10.4625 17.25,11.7 17.25,12.825 C17.25,13.95 17.25,15.1875 17.0113636,16.3125 C16.8920455,17.1 16.1761364,17.6625 15.3409091,17.775 C13.3125,18 11.4034091,18 9.375,18 C7.34659091,18 5.4375,18 3.40909091,17.775 C2.57386364,17.6625 1.97727273,17.1 1.73863636,16.3125 C1.5,15.1875 1.5,13.95 1.5,12.825 C1.5,11.7 1.5,10.4625 1.73863636,9.3375 C1.97727273,8.55 2.69318182,7.875 3.40909091,7.875 C5.4375,7.65 7.34659091,7.65 9.375,7.65 C11.4034091,7.65 13.4318182,7.65 15.3409091,7.875 C16.0568182,7.875 16.7727273,8.55 17.0113636,9.3375 Z M6.03409091,10.35 L6.03409091,9.3375 L2.69318182,9.3375 L2.69318182,10.35 L3.76704545,10.35 L3.76704545,16.0875 L4.84090909,16.0875 L4.84090909,10.35 L6.03409091,10.35 Z M8.89772727,16.0875 L8.89772727,11.025 L7.94318182,11.025 L7.94318182,14.7375 C7.70454545,15.075 7.58522727,15.1875 7.34659091,15.1875 C7.22727273,15.1875 7.10795455,15.075 7.10795455,14.9625 L7.10795455,11.025 L6.15340909,11.025 L6.15340909,14.9625 C6.15340909,15.4125 6.27272727,15.6375 6.27272727,15.75 C6.39204545,15.975 6.51136364,16.0875 6.86931818,16.0875 C7.22727273,16.0875 7.58522727,15.975 7.94318182,15.525 L7.94318182,16.0875 L8.89772727,16.0875 Z M12.4772727,14.5125 L12.4772727,12.4875 C12.4772727,12.0375 12.4772727,11.7 12.3579545,11.475 C12.2386364,11.1375 12,10.9125 11.6420455,10.9125 C11.2840909,10.9125 11.0454545,11.1375 10.6875,11.475 L10.6875,9.3375 L9.73295455,9.3375 L9.73295455,15.975 L10.6875,15.975 L10.6875,15.525 C10.9261364,15.8625 11.2840909,16.0875 11.6420455,16.0875 C12,16.0875 12.2386364,15.8625 12.3579545,15.525 C12.4772727,15.3 12.4772727,14.9625 12.4772727,14.5125 Z M11.1647727,11.8125 C11.4034091,11.8125 11.5227273,12.0375 11.5227273,12.4875 L11.5227273,14.625 C11.5227273,15.075 11.4034091,15.3 11.1647727,15.3 C11.0454545,15.3 10.8068182,15.1875 10.6875,15.075 L10.6875,12.0375 C10.8068182,11.925 11.0454545,11.8125 11.1647727,11.8125 Z M16.0568182,13.725 L15.8181818,13.725 L15.8181818,12.825 C15.8181818,12.375 15.8181818,11.925 15.5795455,11.7 C15.3409091,11.3625 14.9829545,11.1375 14.5056818,11.1375 C13.9090909,11.1375 13.5511364,11.3625 13.3125,11.7 C13.1931818,11.925 13.0738636,12.2625 13.0738636,12.825 L13.0738636,14.5125 C13.0738636,14.9625 13.1931818,15.4125 13.4318182,15.6375 C13.7897727,15.975 14.1477273,16.2 14.625,16.2 C15.2215909,16.2 15.5795455,15.975 15.8181818,15.6375 C15.9375,15.4125 16.0568182,15.3 16.0568182,15.075 L16.0568182,14.4 L15.1022727,14.4 L15.1022727,14.9625 C14.9829545,15.1875 14.8636364,15.3 14.625,15.3 C14.2670455,15.3 14.1477273,15.075 14.1477273,14.625 L14.1477273,13.725 L16.0568182,13.725 Z M14.625,11.8125 C14.9829545,11.8125 15.1022727,12.0375 15.1022727,12.4875 L15.1022727,12.9375 L14.1477273,12.9375 L14.1477273,12.4875 C14.1477273,12.0375 14.2670455,11.8125 14.625,11.8125 Z" id="path-5-yt"></path>
    </defs>
    <g stroke="none" stroke-width="1" fill="none" fill-rule="evenodd">
        <g transform="translate(-17, -15)">
            <g>
                <mask id="mask-2-yt" fill="white">
                    <use xlink:href="#path-1-yt"></use>
                </mask>
                <mask id="mask-4-yt" fill="white">
                    <use xlink:href="#path-3-yt"></use>
                </mask>
                <rect stroke="#FFFFFF" stroke-width="1" x="0.5" y="0.5" width="205" height="45" rx="4"></rect>
            </g>
            <g transform="translate(16, 14)">
                <mask id="mask-6-yt" fill="white">
                    <use xlink:href="#path-5"></use>
                </mask>
                <use id="Mask" fill="#FFFFFF" fill-rule="nonzero" xlink:href="#path-5-yt"></use>
                <g id="color/white" mask="url(#mask-6-yt)" fill="#FFFFFF" fill-rule="evenodd">
                    <rect id="FFFFFF" x="0" y="0" width="18" height="18"></rect>
                </g>
            </g>
        </g>
    </g>
</svg>
